<?xml version="1.0" encoding="utf-8"?>
<!-- Generator: Adobe Illustrator 25.0.1, SVG Export Plug-In . SVG Version: 6.00 Build 0)  -->
<svg version="1.1" id="Layer_1" xmlns="http://www.w3.org/2000/svg" xmlns:xlink="http://www.w3.org/1999/xlink" x="0px" y="0px"
	 viewBox="0 0 293.61 361.24" style="enable-background:new 0 0 293.61 361.24;" xml:space="preserve">
<path d="M91.74,241.65l-7.04,12.19H28.51L0.42,205.19l28.09-48.66h14.11c1.57,6.27,7.23,10.91,13.98,10.91
	c6.75,0,12.41-4.65,13.98-10.91H84.7l28.09,48.66l-7.09,12.28c-6.19-1.72-12.99,0.86-16.36,6.68
	C85.98,229.97,87.15,237.15,91.74,241.65z M42.62,149.49c1.57-6.27,7.23-10.91,13.98-10.91c6.75,0,12.41,4.65,13.98,10.91H84.7
	l28.09-48.66l-7.09-12.28c-6.19,1.72-12.99-0.86-16.36-6.68c-3.36-5.82-2.19-13,2.39-17.5L84.7,52.18H28.51L0.42,100.83l28.09,48.66
	H42.62z M251.32,156.53c-1.57,6.27-7.23,10.91-13.98,10.91c-6.75,0-12.41-4.65-13.98-10.91h-14.17l-27.97,48.66l7.09,12.33
	c6.23-1.81,13.12,0.76,16.51,6.63c3.4,5.89,2.17,13.17-2.55,17.66l6.92,12.04h56.18l28.09-48.66l-28.09-48.66H251.32z
	 M179.82,238.58c-3.37-5.83-2.19-13.02,2.41-17.52l-7.13-12.35h-56.18l-7.08,12.26c4.68,4.49,5.89,11.74,2.5,17.61
	c-3.39,5.87-10.27,8.44-16.5,6.64l-7.01,12.15l28.09,48.66h56.18l28.09-48.66l-6.99-12.12C190,246.99,183.18,244.41,179.82,238.58z
	 M114.34,67.44c3.39,5.87,2.17,13.12-2.5,17.61l7.08,12.26h56.18l7.13-12.35c-4.6-4.5-5.78-11.69-2.41-17.52
	c3.37-5.83,10.18-8.41,16.38-6.67l6.99-12.12L175.1,0h-56.18L90.83,48.66l7.01,12.15C104.07,59,110.95,61.57,114.34,67.44z
	 M204.97,81.88c-3.39,5.87-10.28,8.44-16.51,6.63l-7.09,12.32l27.97,48.66h14.17c1.57-6.27,7.23-10.91,13.98-10.91
	s12.41,4.65,13.98,10.91h14.04l28.09-48.66l-28.09-48.66h-56.18l-6.92,12.04C207.13,68.71,208.37,75.99,204.97,81.88z"/>
<g>
	<path d="M64.01,360.88c-2.23,0-4.3-0.39-6.23-1.16c-1.93-0.77-3.63-1.86-5.1-3.27c-1.47-1.41-2.62-3.09-3.45-5.03
		c-0.83-1.94-1.25-4.09-1.25-6.43c0-2.34,0.42-4.49,1.25-6.43c0.83-1.94,1.98-3.62,3.45-5.03c1.47-1.41,3.17-2.5,5.1-3.27
		c1.93-0.77,4.01-1.16,6.23-1.16c2.23,0,4.31,0.39,6.25,1.16c1.94,0.77,3.64,1.86,5.1,3.27c1.45,1.41,2.6,3.09,3.43,5.03
		c0.83,1.94,1.25,4.09,1.25,6.43c0,2.34-0.42,4.49-1.25,6.43c-0.83,1.94-1.98,3.62-3.45,5.03c-1.47,1.41-3.17,2.5-5.1,3.27
		C68.31,360.5,66.24,360.88,64.01,360.88z M64.01,354.25c1.63,0,3.06-0.4,4.27-1.2c1.22-0.8,2.17-1.9,2.85-3.29
		c0.68-1.39,1.02-2.98,1.02-4.76c0-1.81-0.34-3.41-1.02-4.79c-0.68-1.38-1.63-2.47-2.85-3.27c-1.22-0.8-2.64-1.2-4.27-1.2
		c-1.66,0-3.1,0.4-4.32,1.2c-1.22,0.8-2.16,1.89-2.83,3.27c-0.67,1.38-1,2.98-1,4.79c0,1.78,0.33,3.37,1,4.76
		c0.67,1.39,1.61,2.49,2.83,3.29C60.91,353.85,62.35,354.25,64.01,354.25z"/>
	<path d="M108.12,339.46c-0.46,0.11-0.96-0.06-1.22-0.46c-0.68-1.04-1.5-1.82-2.46-2.35c-1.16-0.64-2.51-0.96-4.05-0.96
		c-1.6,0-3.03,0.41-4.27,1.22c-1.25,0.82-2.22,1.93-2.92,3.34c-0.7,1.41-1.05,2.99-1.05,4.74c0,1.87,0.34,3.5,1.02,4.9
		c0.68,1.39,1.67,2.48,2.96,3.25c1.29,0.77,2.84,1.16,4.65,1.16c1.04,0,1.99-0.18,2.85-0.53c0.86-0.36,1.63-0.85,2.31-1.49
		c0.68-0.64,1.28-1.37,1.78-2.2v-1.29h-6.36c-0.62,0-1.11-0.5-1.11-1.11v-3.82c0-0.62,0.5-1.11,1.11-1.11h12.37
		c0.62,0,1.11,0.5,1.11,1.11v8.01c-0.71,1.51-1.74,2.96-3.07,4.34c-1.33,1.38-2.97,2.51-4.9,3.38c-1.93,0.88-4.15,1.31-6.68,1.31
		c-2.37,0-4.53-0.39-6.48-1.16c-1.94-0.77-3.63-1.87-5.05-3.29c-1.42-1.42-2.51-3.11-3.27-5.05c-0.76-1.94-1.13-4.07-1.13-6.39
		c0-2.31,0.38-4.44,1.13-6.39c0.76-1.94,1.84-3.63,3.25-5.05c1.41-1.42,3.08-2.52,5.01-3.29c1.93-0.77,4.08-1.16,6.45-1.16
		c2.28,0,4.4,0.36,6.34,1.07c1.94,0.71,3.62,1.73,5.03,3.05c1.07,1,1.92,2.15,2.56,3.46c0.31,0.65-0.06,1.42-0.76,1.58
		L108.12,339.46z"/>
	<path d="M184.1,329.41h5.55c0.61,0,1.1,0.49,1.1,1.1v11.01h11.75v-11.01c0-0.61,0.49-1.1,1.1-1.1h5.55c0.61,0,1.1,0.49,1.1,1.1
		v28.97c0,0.61-0.49,1.1-1.1,1.1h-5.55c-0.61,0-1.1-0.49-1.1-1.1v-11.46h-11.75v11.46c0,0.61-0.49,1.1-1.1,1.1h-5.55
		c-0.61,0-1.1-0.49-1.1-1.1v-28.97C183,329.9,183.49,329.41,184.1,329.41z"/>
	<path d="M271.26,351.86c-0.58-1.37-2.37-2.63-3.68-3c1.17-0.54,2.57-1.48,3.36-2.31c0.93-0.98,1.63-2.08,2.09-3.29
		c0.46-1.22,0.69-2.45,0.69-3.69c0-1.81-0.42-3.49-1.27-5.03c-0.85-1.54-2.12-2.78-3.83-3.72c-1.71-0.93-3.85-1.4-6.43-1.4h-13.22
		c-0.62,0-1.11,0.5-1.11,1.11v28.93c0,0.62,0.5,1.11,1.11,1.11h5.52c0.62,0,1.11-0.5,1.11-1.11v-9.7h3.63
		c1.17,0,2.96,1.31,3.65,2.73c1.37,2.82,2.24,5.83,2.62,7.25c0.13,0.49,0.57,0.83,1.08,0.83h6.14c0.76,0,1.23-0.73,1.05-1.48
		C273.42,357.56,272.84,355.57,271.26,351.86z M255.61,335.91h6.1c1.39,0,2.43,0.33,3.12,0.98c0.68,0.65,1.02,1.54,1.02,2.67
		c0,0.77-0.16,1.44-0.47,2c-0.31,0.56-0.77,0.99-1.38,1.27c-0.61,0.28-1.37,0.42-2.29,0.42h-6.1V335.91z"/>
	<path d="M152.18,329.41h24.07c0.55,0,0.99,0.44,0.99,0.99v4.51c0,0.55-0.44,0.99-0.99,0.99h-8.71v23.55c0,0.61-0.5,1.11-1.11,1.11
		h-5.53c-0.61,0-1.11-0.5-1.11-1.11v-23.55h-8.67c-0.55,0-0.99-0.44-0.99-0.99l1.05-4.51C151.18,329.86,151.63,329.41,152.18,329.41
		z"/>
	<path d="M22.26,329.41h24.07c0.55,0,0.99,0.44,0.99,0.99v4.51c0,0.55-0.44,0.99-0.99,0.99h-8.71v23.55c0,0.61-0.5,1.11-1.11,1.11
		h-5.53c-0.61,0-1.11-0.5-1.11-1.11v-23.55h-8.67c-0.55,0-0.99-0.44-0.99-0.99l1.05-4.51C21.27,329.86,21.71,329.41,22.26,329.41z"
		/>
	<path d="M143.75,335.91h-14.78v5.83h10.81c0.47,0,0.85,0.38,0.85,0.85l-0.84,4.34c0,0.47-0.38,0.85-0.85,0.85l-9.98,0.01v6.28
		h15.31c0.47,0,0.85,0.38,0.85,0.85v4.8c0,0.47-0.38,0.85-0.85,0.85h-22.21c-0.47,0-0.85-0.38-0.85-0.85v-29.46
		c0-0.47,0.38-0.85,0.85-0.85h21.67c0.47,0,0.85,0.38,0.85,0.85v4.8C144.6,335.53,144.22,335.91,143.75,335.91z"/>
	<path d="M239.93,335.91h-14.78v5.83h10.81c0.47,0,0.85,0.38,0.85,0.85l-0.84,4.34c0,0.47-0.38,0.85-0.85,0.85l-9.98,0.01v6.28
		h15.31c0.47,0,0.85,0.38,0.85,0.85v4.8c0,0.47-0.38,0.85-0.85,0.85h-22.21c-0.47,0-0.85-0.38-0.85-0.85v-29.46
		c0-0.47,0.38-0.85,0.85-0.85h21.67c0.47,0,0.85,0.38,0.85,0.85v4.8C240.78,335.53,240.4,335.91,239.93,335.91z"/>
</g>
</svg>
